<svg width="43" height="42" viewBox="0 0 43 42" fill="none" xmlns="http://www.w3.org/2000/svg">
<g clip-path="url(#clip0_32_82219)">
<path d="M25.0636 41.9462C24.5956 41.9463 24.1322 41.8541 23.6998 41.675C23.2675 41.496 22.8746 41.2335 22.5437 40.9025C22.2128 40.5716 21.9503 40.1788 21.7712 39.7464C21.5921 39.314 21.5 38.8506 21.5 38.3826V30.502H31.0015V38.3823C31.0017 39.3273 30.6264 40.2337 29.9584 40.902C29.2903 41.5704 28.3841 41.946 27.4391 41.9462H25.0636Z" fill="#7F56D9"/>
<path d="M38.8822 21H31.0015L21.5 30.5021H38.8822C39.3502 30.5022 39.8136 30.4101 40.246 30.231C40.6784 30.052 41.0713 29.7895 41.4023 29.4587C41.7333 29.1278 41.9958 28.7349 42.175 28.3026C42.3541 27.8702 42.4463 27.4068 42.4464 26.9388V24.5642C42.4464 24.0961 42.3543 23.6326 42.1752 23.2002C41.9961 22.7677 41.7336 22.3747 41.4026 22.0438C41.0716 21.7128 40.6787 21.4502 40.2462 21.2712C39.8138 21.0921 39.3502 20.9999 38.8822 21Z" fill="#B692F6"/>
<path d="M42.4463 17.4372C42.4464 17.9052 42.3542 18.3685 42.1752 18.8009C41.9961 19.2332 41.7336 19.6261 41.4027 19.957C41.0718 20.2878 40.679 20.5503 40.2467 20.7294C39.8143 20.9084 39.3509 21.0006 38.883 21.0005H31.0029V11.499H38.883C39.3509 11.499 39.8143 11.5911 40.2466 11.7702C40.6789 11.9492 41.0717 12.2116 41.4026 12.5425C41.7335 12.8734 41.996 13.2662 42.1751 13.6985C42.3541 14.1308 42.4463 14.5941 42.4463 15.0621V17.4372Z" fill="#7F56D9"/>
<path d="M21.5 3.61782V11.4985L31.0024 21V3.61782C31.0023 2.67271 30.6268 1.76634 29.9585 1.09804C29.2903 0.429754 28.3839 0.0542771 27.4388 0.0541993H25.0642C24.5962 0.0540838 24.1327 0.146176 23.7002 0.325217C23.2678 0.504257 22.8749 0.766738 22.5439 1.09767C22.2129 1.42859 21.9504 1.82149 21.7712 2.2539C21.5921 2.68631 21.5 3.14978 21.5 3.61782Z" fill="#B692F6"/>
<path d="M17.9367 0.0541992C18.4047 0.0541992 18.8681 0.146377 19.3004 0.325469C19.7328 0.504561 20.1256 0.76706 20.4565 1.09798C20.7874 1.42889 21.0498 1.82175 21.2289 2.2541C21.408 2.68646 21.5001 3.14985 21.5001 3.61782V11.4982H11.9985V3.61782C11.9985 3.14989 12.0906 2.68653 12.2696 2.25419C12.4486 1.82186 12.711 1.42901 13.0418 1.0981C13.3726 0.767182 13.7654 0.504672 14.1977 0.325559C14.63 0.146446 15.0933 0.0542377 15.5613 0.0541992L17.9367 0.0541992Z" fill="#7F56D9"/>
<path d="M4.11782 20.9999H11.9985L21.5 11.498H4.11782C3.64985 11.498 3.18646 11.5901 2.7541 11.7692C2.32175 11.9483 1.92889 12.2107 1.59798 12.5416C1.26706 12.8725 1.00456 13.2653 0.825469 13.6977C0.646377 14.13 0.554199 14.5934 0.554199 15.0614V17.4359C0.554122 17.904 0.646243 18.3674 0.825301 18.7998C1.00436 19.2322 1.26685 19.6251 1.59777 19.9561C1.92869 20.287 2.32157 20.5495 2.75397 20.7286C3.18636 20.9077 3.6498 20.9999 4.11782 20.9999Z" fill="#B692F6"/>
<path d="M0.554199 24.5622C0.55451 23.6173 0.930068 22.7113 1.59829 22.0433C2.26651 21.3753 3.17267 21 4.11752 21H11.9979V30.5018H4.11752C3.17252 30.5018 2.26622 30.1264 1.59798 29.4582C0.929732 28.7901 0.554277 27.8838 0.554199 26.9388L0.554199 24.5622Z" fill="#7F56D9"/>
<path d="M21.4999 38.3825V30.5018L11.9978 21V38.3825C11.9977 38.8505 12.0898 39.3139 12.2689 39.7463C12.4479 40.1787 12.7104 40.5715 13.0413 40.9025C13.3722 41.2334 13.765 41.496 14.1974 41.6751C14.6297 41.8542 15.0931 41.9464 15.5611 41.9464H17.9357C18.4038 41.9465 18.8673 41.8544 19.2998 41.6754C19.7323 41.4964 20.1252 41.2339 20.4562 40.9029C20.7872 40.5719 21.0497 40.179 21.2288 39.7465C21.4079 39.314 21.5 38.8505 21.4999 38.3825Z" fill="#B692F6"/>
<path d="M31.6069 11.499C31.6069 11.499 31.4941 18.1663 33.7968 21.0011H31.0024V11.499H31.6069Z" fill="#53389E"/>
<path d="M31.0018 31.1064C31.0018 31.1064 24.3348 30.9936 21.5 33.2966V30.502H31.0018V31.1064Z" fill="#53389E"/>
<path d="M11.393 30.5021C11.393 30.5021 11.5059 23.8348 9.20312 21H11.9975V30.5021H11.393Z" fill="#53389E"/>
<path d="M11.9978 10.8938C11.9978 10.8938 18.6648 11.0067 21.4993 8.70361V11.4983H11.9978V10.8938Z" fill="#53389E"/>
</g>
<defs>
<clipPath id="clip0_32_82219">
<rect width="41.8916" height="41.8919" fill="white" transform="translate(0.554199 0.0541992)"/>
</clipPath>
</defs>
</svg>
