<svg width="65" height="33" viewBox="0 0 65 33" fill="none" xmlns="http://www.w3.org/2000/svg">
<path d="M3.73619 0.558047C4.16147 0.558047 4.60195 0.679557 5.05761 0.922577C5.54365 1.13522 5.90818 1.42381 6.1512 1.78834L17.2238 18.8301L14.9455 18.739L26.2915 1.78834C26.8687 0.968143 27.6129 0.558047 28.5242 0.558047C29.2533 0.558047 29.9064 0.816256 30.4836 1.33267C31.0608 1.84909 31.3493 2.5174 31.3493 3.33759V29.7205C31.3493 30.5103 31.0911 31.1786 30.5747 31.7254C30.0583 32.2418 29.3748 32.5 28.5242 32.5C27.6737 32.5 26.975 32.2418 26.4282 31.7254C25.9118 31.1786 25.6536 30.5103 25.6536 29.7205V8.25875L27.4306 8.66884L18.1351 22.84C17.8617 23.1741 17.5124 23.4627 17.0871 23.7057C16.6922 23.9487 16.2821 24.0551 15.8568 24.0247C15.4619 24.0551 15.0518 23.9487 14.6265 23.7057C14.2316 23.4627 13.8975 23.1741 13.6241 22.84L4.92091 9.07894L6.10563 6.66393V29.7205C6.10563 30.5103 5.86261 31.1786 5.37657 31.7254C4.89053 32.2418 4.25261 32.5 3.46279 32.5C2.70335 32.5 2.08061 32.2418 1.59457 31.7254C1.10853 31.1786 0.865514 30.5103 0.865514 29.7205V3.33759C0.865514 2.57815 1.13891 1.92504 1.68571 1.37824C2.26288 0.831444 2.94637 0.558047 3.73619 0.558047ZM50.9582 0.603612C53.1453 0.603612 55.0895 1.01371 56.7906 1.8339C58.4918 2.65409 59.9195 3.80844 61.0739 5.29694C62.2586 6.75506 63.1395 8.4562 63.7167 10.4004C64.3243 12.3141 64.628 14.3646 64.628 16.5518C64.628 19.4984 64.0964 22.1868 63.0332 24.617C61.97 27.0169 60.4207 28.9306 58.3855 30.3584C56.3805 31.7861 53.9048 32.5 50.9582 32.5H40.0678C39.278 32.5 38.6097 32.2418 38.0629 31.7254C37.5465 31.1786 37.2883 30.5103 37.2883 29.7205V3.38315C37.2883 2.59334 37.5465 1.94022 38.0629 1.42381C38.6097 0.87701 39.278 0.603612 40.0678 0.603612H50.9582ZM50.5025 27.2599C52.4163 27.2599 53.9807 26.7738 55.1958 25.8018C56.4109 24.7993 57.2919 23.4931 57.8387 21.8831C58.4158 20.2427 58.7044 18.4656 58.7044 16.5518C58.7044 15.1241 58.5373 13.7723 58.2032 12.4964C57.8994 11.1902 57.4134 10.051 56.7451 9.07894C56.0768 8.07648 55.2262 7.28666 54.1934 6.70949C53.1605 6.13232 51.9302 5.84373 50.5025 5.84373H42.5284L42.9841 5.43364V27.7611L42.7107 27.2599H50.5025Z" fill="#7F56D9"/>
</svg>
